<svg xmlns="http://www.w3.org/2000/svg" width="17" height="16" viewBox="0 0 17 16" fill="none"><style>*, ::after, ::before { --tw-border-spacing-x: 0; --tw-border-spacing-y: 0; --tw-translate-x: 0; --tw-translate-y: 0; --tw-rotate: 0; --tw-skew-x: 0; --tw-skew-y: 0; --tw-scale-x: 1; --tw-scale-y: 1; --tw-pan-x: ; --tw-pan-y: ; --tw-pinch-zoom: ; --tw-scroll-snap-strictness: proximity; --tw-gradient-from-position: ; --tw-gradient-via-position: ; --tw-gradient-to-position: ; --tw-ordinal: ; --tw-slashed-zero: ; --tw-numeric-figure: ; --tw-numeric-spacing: ; --tw-numeric-fraction: ; --tw-ring-inset: ; --tw-ring-offset-width: 0px; --tw-ring-offset-color: #fff; --tw-ring-color: rgba(59,130,246,.5); --tw-ring-offset-shadow: 0 0 #0000; --tw-ring-shadow: 0 0 #0000; --tw-shadow: 0 0 #0000; --tw-shadow-colored: 0 0 #0000; --tw-blur: ; --tw-brightness: ; --tw-contrast: ; --tw-grayscale: ; --tw-hue-rotate: ; --tw-invert: ; --tw-saturate: ; --tw-sepia: ; --tw-drop-shadow: ; --tw-backdrop-blur: ; --tw-backdrop-brightness: ; --tw-backdrop-contrast: ; --tw-backdrop-grayscale: ; --tw-backdrop-hue-rotate: ; --tw-backdrop-invert: ; --tw-backdrop-opacity: ; --tw-backdrop-saturate: ; --tw-backdrop-sepia: ; }
*, ::before, ::after { --tw-border-spacing-x: 0; --tw-border-spacing-y: 0; --tw-translate-x: 0; --tw-translate-y: 0; --tw-rotate: 0; --tw-skew-x: 0; --tw-skew-y: 0; --tw-scale-x: 1; --tw-scale-y: 1; --tw-pan-x: ; --tw-pan-y: ; --tw-pinch-zoom: ; --tw-scroll-snap-strictness: proximity; --tw-gradient-from-position: ; --tw-gradient-via-position: ; --tw-gradient-to-position: ; --tw-ordinal: ; --tw-slashed-zero: ; --tw-numeric-figure: ; --tw-numeric-spacing: ; --tw-numeric-fraction: ; --tw-ring-inset: ; --tw-ring-offset-width: 0px; --tw-ring-offset-color: #fff; --tw-ring-color: rgb(59 130 246 / 0.5); --tw-ring-offset-shadow: 0 0 #0000; --tw-ring-shadow: 0 0 #0000; --tw-shadow: 0 0 #0000; --tw-shadow-colored: 0 0 #0000; --tw-blur: ; --tw-brightness: ; --tw-contrast: ; --tw-grayscale: ; --tw-hue-rotate: ; --tw-invert: ; --tw-saturate: ; --tw-sepia: ; --tw-drop-shadow: ; --tw-backdrop-blur: ; --tw-backdrop-brightness: ; --tw-backdrop-contrast: ; --tw-backdrop-grayscale: ; --tw-backdrop-hue-rotate: ; --tw-backdrop-invert: ; --tw-backdrop-opacity: ; --tw-backdrop-saturate: ; --tw-backdrop-sepia: ; }</style><g clip-path="url(#clip0_8755_128059)"><path d="M15.2313 1.37103L0.740835 6.97841C0.732214 6.98173 0.723857 6.9857 0.715835 6.99029C0.598331 7.05685 -0.221698 7.55843 0.934592 8.00814L0.946468 8.01251L4.3969 9.12724C4.42322 9.13579 4.4511 9.13849 4.47858 9.13514C4.50605 9.13179 4.53247 9.12248 4.55597 9.10786L13.1141 3.7683C13.1351 3.75521 13.1584 3.74639 13.1828 3.74236C13.3019 3.72267 13.6447 3.6858 13.4278 3.96112C13.1825 4.27363 7.337 9.51194 6.68823 10.0929C6.65082 10.1265 6.62767 10.1731 6.62354 10.2232L6.3404 13.5983C6.34037 13.6327 6.34834 13.6666 6.36369 13.6974C6.37905 13.7281 6.40135 13.7549 6.42885 13.7755C6.46786 13.8001 6.51373 13.8115 6.55971 13.808C6.60568 13.8045 6.64931 13.7863 6.68417 13.7561L8.73424 11.9239C8.76663 11.895 8.80794 11.878 8.85131 11.8758C8.89469 11.8735 8.93751 11.8862 8.97268 11.9117L12.5494 14.5087L12.5609 14.5165C12.6475 14.5699 13.5825 15.114 13.8525 13.899L16.3214 2.1595C16.3248 2.12231 16.3583 1.71354 16.0661 1.47197C15.7592 1.21946 15.3248 1.34697 15.2595 1.36072C15.2498 1.3634 15.2404 1.36685 15.2313 1.37103Z" fill="#009EEB"></path></g><defs><clipPath id="clip0_8755_128059"><rect width="16" height="16" fill="white" transform="translate(0.324219)"></rect></clipPath></defs></svg>