<svg xmlns="http://www.w3.org/2000/svg" width="64" height="64" viewBox="0 0 54 15" fill="none" style="display:inline;padding:4px;transition-property:opacity;transition-duration:0.4s;opacity:1"><style>*, ::after, ::before { --tw-border-spacing-x: 0; --tw-border-spacing-y: 0; --tw-translate-x: 0; --tw-translate-y: 0; --tw-rotate: 0; --tw-skew-x: 0; --tw-skew-y: 0; --tw-scale-x: 1; --tw-scale-y: 1; --tw-pan-x: ; --tw-pan-y: ; --tw-pinch-zoom: ; --tw-scroll-snap-strictness: proximity; --tw-gradient-from-position: ; --tw-gradient-via-position: ; --tw-gradient-to-position: ; --tw-ordinal: ; --tw-slashed-zero: ; --tw-numeric-figure: ; --tw-numeric-spacing: ; --tw-numeric-fraction: ; --tw-ring-inset: ; --tw-ring-offset-width: 0px; --tw-ring-offset-color: #fff; --tw-ring-color: rgba(59,130,246,.5); --tw-ring-offset-shadow: 0 0 #0000; --tw-ring-shadow: 0 0 #0000; --tw-shadow: 0 0 #0000; --tw-shadow-colored: 0 0 #0000; --tw-blur: ; --tw-brightness: ; --tw-contrast: ; --tw-grayscale: ; --tw-hue-rotate: ; --tw-invert: ; --tw-saturate: ; --tw-sepia: ; --tw-drop-shadow: ; --tw-backdrop-blur: ; --tw-backdrop-brightness: ; --tw-backdrop-contrast: ; --tw-backdrop-grayscale: ; --tw-backdrop-hue-rotate: ; --tw-backdrop-invert: ; --tw-backdrop-opacity: ; --tw-backdrop-saturate: ; --tw-backdrop-sepia: ; }
*, ::before, ::after { --tw-border-spacing-x: 0; --tw-border-spacing-y: 0; --tw-translate-x: 0; --tw-translate-y: 0; --tw-rotate: 0; --tw-skew-x: 0; --tw-skew-y: 0; --tw-scale-x: 1; --tw-scale-y: 1; --tw-pan-x: ; --tw-pan-y: ; --tw-pinch-zoom: ; --tw-scroll-snap-strictness: proximity; --tw-gradient-from-position: ; --tw-gradient-via-position: ; --tw-gradient-to-position: ; --tw-ordinal: ; --tw-slashed-zero: ; --tw-numeric-figure: ; --tw-numeric-spacing: ; --tw-numeric-fraction: ; --tw-ring-inset: ; --tw-ring-offset-width: 0px; --tw-ring-offset-color: #fff; --tw-ring-color: rgb(59 130 246 / 0.5); --tw-ring-offset-shadow: 0 0 #0000; --tw-ring-shadow: 0 0 #0000; --tw-shadow: 0 0 #0000; --tw-shadow-colored: 0 0 #0000; --tw-blur: ; --tw-brightness: ; --tw-contrast: ; --tw-grayscale: ; --tw-hue-rotate: ; --tw-invert: ; --tw-saturate: ; --tw-sepia: ; --tw-drop-shadow: ; --tw-backdrop-blur: ; --tw-backdrop-brightness: ; --tw-backdrop-contrast: ; --tw-backdrop-grayscale: ; --tw-backdrop-hue-rotate: ; --tw-backdrop-invert: ; --tw-backdrop-opacity: ; --tw-backdrop-saturate: ; --tw-backdrop-sepia: ; }</style><path d="M6.03751 14.9988H0V0.455078H5.79357C8.60948 0.455078 10.2508 2.04847 10.2508 4.54014C10.2508 6.15492 9.19812 7.1949 8.46895 7.54245C9.3413 7.95149 10.4549 8.87117 10.4549 10.8121C10.4549 13.5284 8.60948 14.9988 6.03751 14.9988ZM5.57084 2.98686H2.81591V6.33939H5.57084C6.76668 6.33939 7.43486 5.66567 7.43486 4.66312C7.43486 3.66324 6.76668 2.98686 5.57084 2.98686ZM5.7538 8.89256H2.81591V12.467H5.7538C7.02918 12.467 7.63903 11.6489 7.63903 10.6704C7.63903 9.68925 7.02918 8.89256 5.7538 8.89256Z" fill="#000" style="display:inline-block;animation-duration:1s;animation-iteration-count:infinite;animation-fill-mode:both;animation-name:moly-spin;animation-delay:50ms"></path><path d="M8.04326 9.03425V14.9988H5.24856V9.03425L0.91333 0.455078H3.97318L6.66713 6.318L9.3213 0.455078H12.3785L8.04326 9.03425Z" fill="#000" transform="translate(11, 0)" style="display:inline-block;animation-duration:1s;animation-iteration-count:infinite;animation-fill-mode:both;animation-name:moly-spin-1;animation-delay:100ms"></path><path d="M6.03751 14.9988H0V0.455078H5.79357C8.60948 0.455078 10.2508 2.04847 10.2508 4.54014C10.2508 6.15492 9.19812 7.1949 8.46895 7.54245C9.3413 7.95149 10.4549 8.87117 10.4549 10.8121C10.4549 13.5284 8.60948 14.9988 6.03751 14.9988ZM5.57084 2.98686H2.81591V6.33939H5.57084C6.76668 6.33939 7.43486 5.66567 7.43486 4.66312C7.43486 3.66324 6.76668 2.98686 5.57084 2.98686ZM5.7538 8.89256H2.81591V12.467H5.7538C7.02918 12.467 7.63903 11.6489 7.63903 10.6704C7.63903 9.68925 7.02918 8.89256 5.7538 8.89256Z" fill="#000" transform="translate(25 0)" style="display:inline-block;animation-duration:1s;animation-iteration-count:infinite;animation-fill-mode:both;animation-name:moly-spin-2;animation-delay:150ms"></path><rect width="3" height="15" transform="translate(38 -5)" fill="#F7A600" style="display:inline-block;animation-duration:1s;animation-iteration-count:infinite;animation-fill-mode:both;animation-name:moly-spin-3;animation-delay:200ms"></rect><path d="M6.74998 2.98686V14.9988H3.93407V2.98686H0.16626V0.455078H10.5178V2.98686H6.74998Z" transform="translate(43 0)" fill="#000" style="display:inline-block;animation-duration:1s;animation-iteration-count:infinite;animation-fill-mode:both;animation-name:moly-spin-4;animation-delay:250ms"></path></svg>