<svg width="18" height="18" viewBox="0 0 18 18" fill="none" xmlns="http://www.w3.org/2000/svg"><style>*, ::after, ::before { --tw-border-spacing-x: 0; --tw-border-spacing-y: 0; --tw-translate-x: 0; --tw-translate-y: 0; --tw-rotate: 0; --tw-skew-x: 0; --tw-skew-y: 0; --tw-scale-x: 1; --tw-scale-y: 1; --tw-pan-x: ; --tw-pan-y: ; --tw-pinch-zoom: ; --tw-scroll-snap-strictness: proximity; --tw-gradient-from-position: ; --tw-gradient-via-position: ; --tw-gradient-to-position: ; --tw-ordinal: ; --tw-slashed-zero: ; --tw-numeric-figure: ; --tw-numeric-spacing: ; --tw-numeric-fraction: ; --tw-ring-inset: ; --tw-ring-offset-width: 0px; --tw-ring-offset-color: #fff; --tw-ring-color: rgba(59,130,246,.5); --tw-ring-offset-shadow: 0 0 #0000; --tw-ring-shadow: 0 0 #0000; --tw-shadow: 0 0 #0000; --tw-shadow-colored: 0 0 #0000; --tw-blur: ; --tw-brightness: ; --tw-contrast: ; --tw-grayscale: ; --tw-hue-rotate: ; --tw-invert: ; --tw-saturate: ; --tw-sepia: ; --tw-drop-shadow: ; --tw-backdrop-blur: ; --tw-backdrop-brightness: ; --tw-backdrop-contrast: ; --tw-backdrop-grayscale: ; --tw-backdrop-hue-rotate: ; --tw-backdrop-invert: ; --tw-backdrop-opacity: ; --tw-backdrop-saturate: ; --tw-backdrop-sepia: ; }
*, ::before, ::after { --tw-border-spacing-x: 0; --tw-border-spacing-y: 0; --tw-translate-x: 0; --tw-translate-y: 0; --tw-rotate: 0; --tw-skew-x: 0; --tw-skew-y: 0; --tw-scale-x: 1; --tw-scale-y: 1; --tw-pan-x: ; --tw-pan-y: ; --tw-pinch-zoom: ; --tw-scroll-snap-strictness: proximity; --tw-gradient-from-position: ; --tw-gradient-via-position: ; --tw-gradient-to-position: ; --tw-ordinal: ; --tw-slashed-zero: ; --tw-numeric-figure: ; --tw-numeric-spacing: ; --tw-numeric-fraction: ; --tw-ring-inset: ; --tw-ring-offset-width: 0px; --tw-ring-offset-color: #fff; --tw-ring-color: rgb(59 130 246 / 0.5); --tw-ring-offset-shadow: 0 0 #0000; --tw-ring-shadow: 0 0 #0000; --tw-shadow: 0 0 #0000; --tw-shadow-colored: 0 0 #0000; --tw-blur: ; --tw-brightness: ; --tw-contrast: ; --tw-grayscale: ; --tw-hue-rotate: ; --tw-invert: ; --tw-saturate: ; --tw-sepia: ; --tw-drop-shadow: ; --tw-backdrop-blur: ; --tw-backdrop-brightness: ; --tw-backdrop-contrast: ; --tw-backdrop-grayscale: ; --tw-backdrop-hue-rotate: ; --tw-backdrop-invert: ; --tw-backdrop-opacity: ; --tw-backdrop-saturate: ; --tw-backdrop-sepia: ; }</style><path d="M16.875 9.17486C16.875 8.52737 16.8214 8.05487 16.7053 7.56488L9.16077 7.56488V10.4873H13.5893C13.5 11.2136 13.0179 12.3073 11.9464 13.0423L11.9314 13.1401L14.3169 14.9512L14.4821 14.9673C16 13.5936 16.875 11.5723 16.875 9.17486Z" fill="#4285F4"></path><path d="M9.15996 16.8748C11.3295 16.8748 13.1509 16.1748 14.4813 14.9673L11.9456 13.0423C11.2671 13.506 10.3563 13.8298 9.15996 13.8298C7.03499 13.8298 5.23146 12.4561 4.58854 10.5573L4.49431 10.5652L2.01388 12.4464L1.98145 12.5348C3.30285 15.1073 6.01711 16.8748 9.15996 16.8748Z" fill="#34A853"></path><path d="M4.58922 10.5574C4.41958 10.0674 4.32141 9.54235 4.32141 8.99989C4.32141 8.45736 4.41958 7.93238 4.5803 7.44239L4.5758 7.33803L2.06429 5.42657L1.98211 5.46488C1.4375 6.53238 1.125 7.73115 1.125 8.99989C1.125 10.2686 1.4375 11.4673 1.98211 12.5348L4.58922 10.5574Z" fill="#FBBC05"></path><path d="M9.16 4.16996C10.6689 4.16996 11.6867 4.8087 12.2671 5.34248L14.5349 3.17248C13.1421 1.90375 11.3296 1.125 9.16 1.125C6.01713 1.125 3.30285 2.89247 1.98145 5.46493L4.57963 7.44245C5.23147 5.54371 7.03502 4.16996 9.16 4.16996Z" fill="#EB4335"></path></svg>